<svg width="1920" height="898" fill="none" xmlns="http://www.w3.org/2000/svg"><mask id="a" maskUnits="userSpaceOnUse" x="0" y="0" width="1920" height="898"><path fill="#E3F1E9" d="M0 0h1920v898H0z"/></mask><g mask="url(#a)" fill="#577575"><path d="M340.729 720.338c.234-5.471 1.451-12.528 7.519-14.39 4.121-1.258 8.635-.02 12.848-.032 8.103-.026 15.427-5.277 19.838-11.769 4.533-6.666 6.63-15.085 5.63-23.104-.484-3.94-1.744-7.788-3.816-11.178-2.078-3.404-4.957-6.395-7.891-9.079-6.543-5.968-14.336-10.682-22.578-13.904-8.101-3.163-16.974-5.032-25.697-4.118-4.025.428-8.066 1.454-11.703 3.277-4.369 2.196-7.949 5.729-10.645 9.768-5.507 8.265-7.697 18.814-7.068 28.652.646 9.808 5.836 18.546 14.588 23.198 4.57 2.43 9.607 3.462 14.644 4.42 2.551.489 5.315 1.146 6.873 3.413 1.541 2.232 1.508 5.009 1.204 7.589-.276 2.224-.793 4.413-1.053 6.632-.051.395.158.697.543.816 1.76.512 3.43 1.252 5.289 1.344.885.036.797-1.343-.088-1.379-1.705-.077-3.311-.846-4.932-1.314.182.277.36.54.541.817.481-4.137 2.069-8.558.825-12.707-1.557-5.158-6.297-6.066-10.975-6.929-4.977-.929-9.92-2.346-14.234-5.092-4.116-2.622-7.428-6.399-9.411-10.856-4.066-9.127-3.009-20.504.346-29.702 1.717-4.703 4.238-9.162 7.774-12.729 3.308-3.336 7.371-5.538 11.89-6.781 8.301-2.289 17.231-1.319 25.385 1.092 8.541 2.531 16.654 6.776 23.674 12.241 6.279 4.894 12.283 10.925 14.4 18.813 2.106 7.858.721 16.535-3.189 23.612-3.807 6.869-10.797 12.956-18.942 13.506-4.164.284-8.336-.845-12.5-.289-4.539.615-7.828 3.837-9.246 8.12-.865 2.608-1.121 5.361-1.228 8.089-.035.935 1.349.838 1.385-.047z"/><path d="M338.908 715.898c.44-3.192.608-6.435 1.332-9.582.35-1.532.856-3.034 1.614-4.421.867-1.556 2.134-2.799 3.392-4.047 3.996-3.918 8.879-6.821 12.623-11.001 6.973-7.803 9.34-19.252 7.336-29.383-1.119-5.657-3.67-10.955-7.625-15.179-.611-.653-1.527.383-.926 1.032 7.141 7.639 9.227 18.888 7 28.899-1.189 5.326-3.629 10.359-7.396 14.341-3.748 3.968-8.498 6.802-12.346 10.67-2.371 2.384-3.996 4.833-4.867 8.118-.879 3.355-1.027 6.854-1.496 10.279-.119.879 1.234 1.164 1.359.274zm-.625-16.153c-2.164-15.95-6.746-32.284-3.754-48.428.867-4.684 2.43-9.18 4.76-13.328.436-.77-.801-1.39-1.236-.62-8.385 14.983-6.006 32.722-3.311 48.9.75 4.519 1.555 9.029 2.172 13.567.107.871 1.488.784 1.369-.091z"/><path d="M344.219 689.715c8.976-12.979 10.521-30.183 7.293-45.319-.182-.87-1.494-.428-1.307.433 3.115 14.597 1.656 31.435-7.004 43.955-.51.721.508 1.652 1.018.931zm-.961-13.858c-.971-6.398-.002-12.935 1.826-19.091.252-.85-1.107-1.124-1.359-.274-1.854 6.254-2.836 12.945-1.846 19.452.133.87 1.517.798 1.379-.087zm-11.834 20.567c-3.904-6.002-7.51-12.301-9.375-19.259-1.988-7.452-1.514-15.004-.119-22.515.97-5.238 2.371-10.693 6.031-14.73.603-.661-.428-1.587-1.033-.926-3.168 3.504-4.752 8.039-5.791 12.575-.955 4.219-1.662 8.563-1.83 12.893-.303 7.33 1.275 14.465 4.347 21.114 1.879 4.046 4.164 7.876 6.596 11.608.494.742 1.652-.012 1.174-.76z"/><path d="M325.541 695.847c-6.74-3.185-12.391-8.321-15.77-14.999-3.832-7.6-4.404-16.295-1.472-24.283 1.777-4.821 4.428-9.265 6.738-13.843.397-.79-.834-1.42-1.234-.62-4.299 8.514-9.571 16.923-8.748 26.869.633 7.638 3.799 14.89 9.086 20.45 3.062 3.219 6.767 5.771 10.775 7.671.814.372 1.436-.863.625-1.245z"/><path d="M315.371 676.128c-1.523-4.659-1.906-9.687-.021-14.305.336-.82-.899-1.44-1.237-.62-2.033 4.964-1.709 10.333-.058 15.353.275.855 1.595.418 1.316-.428zm14.652 8.588c-1.619-5.747-2.25-11.69-2.584-17.632-.046-.889-1.427-.803-1.378.087.337 6.056.992 12.122 2.646 17.972.246.866 1.553.433 1.316-.427zm-1.91-31.114c.475-3.336.938-6.627 2.756-9.535.467-.756-.769-1.376-1.234-.62-1.883 3.011-2.383 6.446-2.875 9.895-.125.865 1.228 1.149 1.353.26zm14.672-6.241c.34-3.094.996-6.127 1.326-9.226.096-.88-1.263-1.154-1.359-.274-.34 3.093-.996 6.127-1.326 9.226-.086.884 1.26 1.164 1.359.274zm10.018 53.846c5.799-3.371 12.088-6.41 16.125-11.988 4.244-5.87 6.365-13.35 6.023-20.557-.197-4.192-1.185-8.312-2.703-12.214-.326-.831-1.631-.399-1.307.432 3.43 8.82 3.538 18.048-.38 26.717-1.776 3.931-4.36 7.283-7.801 9.897-3.336 2.53-7.106 4.446-10.713 6.555-.772.454-.012 1.602.756 1.158zm17.785-4.858c2.558-2.635 5.174-5.28 7.15-8.406 2.022-3.189 3.059-6.761 3.1-10.538.01-.885-1.369-.798-1.381.087-.043 3.662-1.146 7.066-3.152 10.127-1.883 2.889-4.364 5.341-6.75 7.803-.619.642.404 1.563 1.033.927z"/></g><g mask="url(#a)" fill="#FFF"><path d="M630.848 195.647c8.396-3.691 16.283-11.022 20.66-19.065 3.008-5.54 5.519-14.343-.664-18.827-5.422-3.922-13.098-.751-17.475 3.266-4.912 4.521-8.926 10.644-10.922 17.037-.984 3.15-1.535 6.712-.592 9.964.987 3.418 3.463 5.749 6.674 7.135 1.746.756 2.58-2.068.86-2.824-11.494-4.989-1.176-21.549 4.148-27.329 3.428-3.715 8.813-7.516 14.174-5.597 6.109 2.175 3.961 10.565 1.746 14.762-4.258 8.047-11.672 15.226-20.043 18.918-1.719.751-.309 3.334 1.434 2.56z"/><path d="M629.801 193.571c2.049-6.627 6.078-12.42 9.799-18.199 1.035-1.594-1.487-3.149-2.498-1.554-3.846 5.987-7.977 12.036-10.104 18.896-.568 1.796 2.256 2.677 2.803.857zm-19.104-9.775c-.57-5.548-1.308-11.077-2.375-16.569-1.211-6.273-2.613-13.233-6.133-18.677-1.24-1.919-2.906-3.803-5.222-4.34-2.551-.591-4.944.753-6.758 2.443-2.855 2.649-5.172 6.208-5.895 10.048-.832 4.402-.019 8.921 1.631 13.017 3.541 8.764 12.19 17.698 22.436 16.013 1.869-.3 1.15-3.168-.695-2.868-7.998 1.325-14.862-5.792-18.137-12.288-1.807-3.583-2.914-7.664-2.588-11.68.293-3.616 2.078-6.767 4.531-9.38.803-.848 1.697-1.693 2.772-2.181.668-.31 1.424-.406 1.916-.298 1.568.327 2.773 1.845 3.695 3.378 3.014 4.959 4.277 11.044 5.412 16.656.66 3.314 1.199 6.649 1.67 9.981.176 1.3.35 2.6.5 3.922.055.567.133 1.11.188 1.677.056.496.093.873.111 1.062.205 1.866 3.146 1.973 2.941.084z"/><path d="M608.174 182.994c-3.401-5.465-5.654-11.508-8.338-17.305-.799-1.718-3.383-.309-2.584 1.409 2.684 5.797 4.937 11.84 8.338 17.305.99 1.605 3.598.197 2.584-1.409zm17.049-27.736c4.904-5.956 10.16-12.68 11.466-20.505.797-4.779.635-10.692-1.927-14.955-1.102-1.821-2.756-3.281-4.94-3.508-2.513-.26-4.814 1.134-6.695 2.634-4.893 3.932-6.498 10.666-6.434 16.67.071 6.57 1.823 13.682 5.887 18.977 1.158 1.492 3.289-.542 2.131-2.011-2.977-3.851-4.383-9.047-4.906-13.817-.559-5.171-.041-10.923 3.052-15.284 1.94-2.746 6.565-6.38 9.163-2.492 2.283 3.384 2.375 8.377 1.933 12.296-.875 7.531-6.082 14.185-10.742 19.843-1.195 1.449.814 3.601 2.012 2.152z"/><path d="M625.723 152.444c.156-5.503.9-10.943 1.058-16.447.053-1.882-2.886-1.989-2.941-.084-.158 5.504-.902 10.944-1.059 16.447-.054 1.906 2.887 1.99 2.942.084z"/></g><g mask="url(#a)" fill="#5B7580"><path d="M831.328 368.603c4.152 21.835 18.391 47.075 41.514 52.676.629.156 1.207-.339 1.365-.932 1.625-6.34-.019-13.373-1.617-19.568-1.899-7.406-4.479-14.196-8.781-20.568-3.963-5.876-8.668-10.252-14.92-13.626-3.127-1.696-6.399-3.119-9.684-4.465a306.03 306.03 0 00-4.441-1.76c-1.041-.403-2.184-1.135-3.317-1.045-.668.053-1.072.628-1.06 1.244-.006 2.732.67 5.353.941 8.044.156 1.484 2.479 1.317 2.322-.186-.271-2.69-.947-5.311-.959-8.023-.357.422-.716.843-1.058 1.244.762-.06 2.527.996 3.357 1.323a260.44 260.44 0 014.153 1.67c2.959 1.223 5.904 2.522 8.716 4.056 6.02 3.262 10.452 7.51 14.25 13.193 3.969 5.931 6.321 12.216 8.12 19.069 1.578 5.953 3.248 12.835 1.681 18.964.461-.317.904-.614 1.365-.932-11.132-2.704-20.029-10.636-26.515-19.79-6.467-9.118-11.02-19.792-13.112-30.792-.283-1.437-2.605-1.27-2.32.204z"/><path d="M832.502 363.402c8.418 8.757 15.791 18.457 22.504 28.566 2.89 4.352 5.973 8.54 8.986 12.808 3.141 4.463 6.246 9.172 7.57 14.548.36 1.449 2.559.656 2.2-.793-1.291-5.172-4.184-9.805-7.184-14.13-3.189-4.609-6.537-9.075-9.639-13.747-6.839-10.286-14.351-20.087-22.914-29.001-1.058-1.094-2.56.691-1.523 1.749z"/><path d="M867.801 414.123c-9.281-8.8-18.92-17.609-25.188-28.931-.72-1.308-2.634.023-1.912 1.331 6.356 11.484 16.154 20.448 25.578 29.368 1.092 1.035 2.596-.731 1.522-1.768zm-3.01-20.41c-3.49-6.512-8.371-11.903-13.395-17.245-1.023-1.097-2.525.688-1.503 1.766 4.902 5.221 9.601 10.477 13.003 16.809.686 1.329 2.598-.02 1.895-1.33zm-21.303-13.267c-1.494-2.781-2.664-5.736-4.408-8.384-.342-.534-1.115-.641-1.629-.282-.533.36-.642 1.099-.281 1.631 1.744 2.648 2.914 5.604 4.406 8.384.307.556 1.153.619 1.631.282.547-.399.568-1.074.281-1.631zm-6.334-40.74c13.598 17.677 37.639 33.625 60.838 28.221.662-.146.822-.945.703-1.497-1.433-6.489-6.22-12.13-10.494-16.971-4.726-5.347-9.674-9.947-15.887-13.548-6.232-3.619-12.433-5.649-19.654-5.953-3.713-.153-7.435.051-11.15.347-1.655.132-3.324.283-4.977.434-1.168.112-2.525-.023-3.541.6-.392.237-.656.913-.433 1.363 1.25 2.538 3.08 4.637 4.595 7.004.813 1.263 2.725-.068 1.914-1.331-1.39-2.19-3.154-4.145-4.33-6.464-.15.461-.283.902-.433 1.362.642-.387 2.879-.248 3.789-.32 1.558-.143 3.117-.286 4.679-.392 3.344-.248 6.698-.403 10.055-.259 6.902.291 12.85 2.436 18.774 5.91 5.904 3.477 10.599 7.966 15.082 13.089 4.011 4.581 8.451 9.858 9.796 15.942.241-.505.463-.991.704-1.496-11.161 2.592-22.682-.53-32.598-5.782-9.875-5.235-18.717-12.724-25.518-21.572-.918-1.199-2.83.132-1.914 1.313z"/><path d="M835.592 334.407c11.808 4.146 23.051 9.628 33.902 15.834 4.467 2.562 9.078 4.832 13.61 7.258 4.548 2.443 9.212 5.139 12.613 9.095.969 1.12 2.883-.192 1.914-1.331-6.678-7.773-16.977-11.273-25.637-16.269-11.308-6.543-23.045-12.36-35.392-16.688-1.403-.487-2.414 1.614-1.01 2.101z"/><path d="M890.133 363.823c-12.141-3.634-24.662-7.106-35.256-14.305-1.227-.837-2.75.93-1.506 1.766 10.951 7.451 23.766 11.069 36.328 14.837 1.438.428 1.852-1.869.434-2.298zm-11.635-16.715c-6.059-4.249-12.793-6.892-19.705-9.409-1.404-.505-2.416 1.596-1.01 2.101 6.699 2.44 13.313 4.962 19.211 9.074 1.229.856 2.733-.91 1.504-1.766zm-24.986-2.237c-2.674-1.863-5.125-4.024-7.967-5.65-.527-.294-1.309-.008-1.565.537-.267.62-.013 1.235.538 1.566.703.392 1.216.726 1.828 1.144.654.453 1.289.926 1.925 1.399 1.233.931 2.432 1.883 3.698 2.773.496.354 1.23.407 1.635-.13.394-.443.443-1.251-.092-1.639z"/></g><g mask="url(#a)"><path d="M314.328 345.75c-1.902 7.161-11.756 9.54-18.139 9.713-3.298.091-7.091-.239-9.873-2.171-1.052-.725-1.888-1.735-2.199-2.999-.351-1.463-.055-3.655.945-4.8 1.196-1.363 3.272-.091 4.497.592 1.638.908 3.246 2.01 5.043 2.566 3.705 1.141 8.14-1.342 9.084-5.125.925-3.732-1.879-7.44-5.42-8.386-3.844-1.032-8.118-.056-11.928.709-3.674.739-8.242 2.325-11.922.98-2.699-.998-4.68-3.237-5.871-5.804-.205-.45-1.262-2.314-.852-2.857.028-.027.989.138 1.254.202 3.381.9 6.668 3.22 10.28 3.005 3.382-.2 6.593-3.051 5.136-6.533-1.488-3.55-5.011-5.109-8.406-6.208-2.072-.67-4.637-1.444-5.656-3.573-.588-1.239-.889-4.72.82-5.426 1.774-.737 3.807 1.723 5.664 1.523 3.336-.356 1.67-6.252.428-7.736-1.539-1.808-3.912-2.73-6.084-3.545-2.522-.945-5.111-1.858-7.418-3.294-2.5-1.548-4.205-3.756-4.865-6.649-.553-2.411-.157-4.939.592-7.28.691-2.204 1.835-4.751 3.931-5.961 1.906-1.09 3.719-.528 4.703 1.329 1.369 2.564 1.6 7.26 4.846 8.308 1.5.481 3.437-.062 4.486-1.217 1.157-1.275 1.467-3.129 1.719-4.763.326-2.164.408-4.402 1.07-6.495.721-2.259 2.469-3.617 4.578-4.572 4.262-1.932 10.049-1.376 11.809 3.58 1.676 4.724-1.998 8.609-3.719 12.686-1.756 4.15-1.406 13.569 5.309 11.105 2.557-.939 4.82-2.656 7.09-4.129 2.142-1.397 4.609-3.172 7.226-3.481 2.278-.267 4.284 1.795 3.95 4.113-.364 2.539-3.213 4.432-5.124 5.799-4.533 3.272-12.132 6.865-12.746 13.194-.4 4.109 2.555 7.702 6.262 9.131 4.215 1.622 9.434.187 10.697-4.521.592-2.183.455-4.534 1.332-6.636.823-1.965 2.938-3.816 5.067-4.218 3.318-.649 4.754 3.215 4.969 5.843.314 3.736-1.133 7.214-4.096 9.503-2.244 1.723-6.729 4.106-5.893 7.587.932 3.902 5.047 3.223 8.022 3.002 1.994-.144 3.439.569 3.719 2.728.246 1.899-1.024 3.56-2.346 4.779-2.58 2.365-6.139 4.134-9.541 4.975-.959.233-.686 1.762.287 1.524 3.541-.868 7.154-2.636 9.934-5.016 2.605-2.227 4.73-6.239 1.984-9.288-2.549-2.842-6.535.398-9.34-1.414-4.201-2.7 3.094-6.749 4.871-8.244 2.735-2.276 4.041-5.877 3.979-9.377-.047-2.876-1.037-6.502-3.907-7.789-3.267-1.463-7.332 1.334-8.816 4.171-1.07 2.045-1.078 4.356-1.498 6.579-.549 2.891-2.533 4.87-5.59 4.98-4.578.149-9.502-3.958-8.451-8.823.685-3.149 3.619-5.439 6.076-7.264 2.764-2.042 5.785-3.784 8.387-6.049 1.846-1.611 3.726-3.802 3.25-6.428-.424-2.376-2.381-4.366-4.856-4.388-2.666-.024-5.22 1.601-7.396 2.959-2.465 1.554-4.834 3.391-7.51 4.567-2.191.955-3.82.66-4.398-1.862-.457-1.99-.481-4.163.174-6.102.736-2.197 2.07-4.123 3.103-6.191 1.992-3.975 2.225-8.909-1.4-12.068-3.252-2.844-8.2-2.517-11.885-.728-1.869.908-3.674 2.21-4.582 4.135-.904 1.908-1.108 4.095-1.36 6.155-.222 1.811-.24 4.691-1.794 5.967-1.627 1.354-3.426.51-4.276-1.125-1.406-2.697-1.662-7.504-5.164-8.455-4.678-1.273-7.666 4.162-8.734 7.799-1.375 4.678-1.075 9.917 2.605 13.502 1.85 1.795 4.215 2.927 6.576 3.909 2.551 1.057 5.414 1.768 7.696 3.353 1.136.781 2.037 1.841 2.3 3.237.116.604.36 2.299-.111 2.857-.506.603-1.543-.089-2.142-.361-2.131-.957-4.649-1.781-5.874.914-.841 1.865-.865 4.308.147 6.111 1.018 1.841 2.971 2.83 4.871 3.542 2 .747 4.191 1.125 5.941 2.377 1.368.971 2.938 2.448 3.276 4.166.437 2.178-2.125 3.559-3.981 3.704-1.867.151-3.847-.728-5.545-1.388-1.453-.557-6.896-3.52-7.48-.475-.379 1.97 1.32 4.62 2.393 6.119 1.396 1.973 3.371 3.543 5.691 4.298 3.742 1.219 8.143-.175 11.848-.931 3.894-.791 8.841-2.163 12.691-.528 1.959.834 3.527 2.958 3.527 5.114.008 2.593-2.214 4.619-4.611 5.179-3.969.924-6.885-3.156-10.578-3.821-3.578-.653-5.004 3.638-4.658 6.533.347 2.868 2.648 4.773 5.191 5.791 6.719 2.7 15.846 1.291 21.977-2.29 2.787-1.628 5.285-3.994 6.136-7.197.311-.975-1.142-1.477-1.404-.513z" fill="#9D8A69"/></g></svg>