<svg width="502.295" height="219.141" fill="none" xmlns="http://www.w3.org/2000/svg"><path d="M324.316 90.527v37.94q0 23.437-5.273 40.576-5.127 17.139-14.941 28.271-5.493 6.324-12.213 10.805-5.112 3.407-10.932 5.748-13.33 5.274-29.59 5.274-13.037 0-24.316-3.37-7.697-2.298-14.369-6.302-3.108-1.864-5.993-4.098-8.935-7.178-15.38-17.871-6.446-10.693-9.961-25.488-3.369-14.795-3.369-33.545v-37.94q0-23.73 5.126-40.722 5.274-16.992 15.088-28.125 6.459-7.327 14.44-12.115h.002q4.146-2.489 8.703-4.292Q234.814 0 251.074 0q13.037 0 24.17 3.37 7.697 2.298 14.369 6.302 3.108 1.864 5.992 4.098 9.083 7.03 15.381 17.724 6.446 10.694 9.815 25.488 3.515 14.649 3.515 33.545zm-168.31 44.239v35.449h-22.852v45.996H87.451v-45.996H2.491L0 142.383 87.305 2.93h45.849v131.836h22.852zm346.289 35.449v-35.449h-22.852V2.93h-45.849l-87.305 139.453 2.49 27.832h84.961v45.996h45.703v-45.996h22.852zM433.74 62.63l-3.222 5.339-39.698 66.797h42.92V62.63zm-155.127 71.55V84.521q0-10.986-1.318-19.043-1.172-8.203-3.516-13.915-2.197-5.713-5.566-9.229-2.334-2.435-5.16-3.957-1.252-.675-2.604-1.17-4.248-1.758-9.375-1.758-6.303 0-11.344 2.521-.115.057-.228.116l-.127.066q-5.043 2.642-8.516 8.283-3.515 5.567-5.42 15.088-1.757 9.375-1.757 22.998v49.659q0 10.986 1.172 19.189 1.318 8.203 3.515 14.063 2.344 5.713 5.713 9.375 2.334 2.435 5.16 3.956 1.252.675 2.604 1.171 4.394 1.611 9.521 1.611 6.445 0 11.426-2.49 4.98-2.637 8.496-8.35 3.662-5.859 5.42-15.381 1.904-9.521 1.904-23.144zM84.228 67.969l3.223-5.34v72.137h-42.92l39.697-66.797z" fill="#8FA8A8" fill-rule="evenodd"/></svg>