<svg width="20" height="20" fill="none" xmlns="http://www.w3.org/2000/svg"><path d="M13.659 2.263A4.109 4.109 0 0116.495 3.4a3.81 3.81 0 011.18 2.732v7.736a3.81 3.81 0 01-1.18 2.733 4.109 4.109 0 01-2.837 1.136H5.623a4.109 4.109 0 01-2.837-1.136 3.81 3.81 0 01-1.18-2.732V6.131A3.81 3.81 0 012.787 3.4a4.11 4.11 0 012.837-1.137h8.035zm0-1.547H5.623C2.531.716 0 3.153 0 6.132v7.736c0 2.98 2.53 5.417 5.624 5.417h8.035c3.093 0 5.624-2.438 5.624-5.417V6.132c0-2.979-2.531-5.416-5.625-5.416z" fill="#274C5B"/><path d="M14.863 6.133a1.24 1.24 0 01-.67-.196 1.171 1.171 0 01-.443-.52 1.12 1.12 0 01-.069-.671c.047-.225.162-.432.33-.595a1.22 1.22 0 01.617-.317c.234-.045.476-.022.697.066.22.088.408.236.54.427a1.13 1.13 0 01-.149 1.466 1.243 1.243 0 01-.853.34zm-5.222.773c.636 0 1.257.182 1.786.522.528.34.94.823 1.183 1.389.244.565.307 1.187.183 1.788-.124.6-.43 1.152-.88 1.584a3.254 3.254 0 01-1.645.847 3.33 3.33 0 01-1.857-.176 3.192 3.192 0 01-1.442-1.14A3.014 3.014 0 016.427 10c.001-.82.34-1.606.942-2.187a3.281 3.281 0 012.272-.907zm0-1.547c-.953 0-1.885.272-2.678.782a4.685 4.685 0 00-1.776 2.083 4.483 4.483 0 00-.274 2.683c.186.9.645 1.727 1.32 2.376a4.88 4.88 0 002.468 1.27c.935.18 1.904.088 2.785-.263a4.786 4.786 0 002.163-1.71 4.52 4.52 0 00.813-2.58 4.557 4.557 0 00-1.412-3.282 4.916 4.916 0 00-3.409-1.36z" fill="#274C5B"/></svg>