<svg width="1920" height="223" fill="none" xmlns="http://www.w3.org/2000/svg"><mask id="a" maskUnits="userSpaceOnUse" x="0" y="0" width="1920" height="223"><path fill="#E3F1E9" d="M0 0h1920v223H0z"/></mask><g mask="url(#a)" fill="#DDD"><path d="M792.646 81.194c-8.195-4.116-18.873-5.52-27.859-3.764-6.185 1.214-14.57 4.89-14.082 12.513.436 6.678 7.77 10.57 13.656 11.382 6.614.902 13.891.091 20.088-2.446 3.055-1.25 6.151-3.097 8.055-5.897 2.004-2.938 2.221-6.332 1.242-9.69-.529-1.826-3.238-.669-2.723 1.139 3.483 12.035-15.853 14.642-23.701 14.225-5.047-.272-11.408-1.998-13.347-7.352-2.219-6.094 5.615-9.787 10.261-10.755 8.914-1.85 19.17-.716 27.352 3.382 1.674.844 2.766-1.889 1.058-2.737z"/><path d="M791.715 83.324c-6.412 2.645-13.445 3.234-20.27 4.05-1.888.22-1.478 3.155.397 2.917 7.062-.854 14.357-1.528 20.998-4.262 1.748-.707.625-3.445-1.125-2.705zm4.646 20.949c-3.91 3.977-7.701 8.07-11.25 12.394-4.062 4.931-8.531 10.449-10.482 16.63-.688 2.179-1.076 4.663-.014 6.79 1.17 2.342 3.733 3.33 6.192 3.65 3.861.511 8.078.027 11.498-1.865 3.922-2.164 6.884-5.672 8.99-9.554 4.494-8.315 5.863-20.673-1.967-27.494-1.422-1.249-3.174 1.134-1.766 2.364 6.12 5.319 5.012 15.143 2.096 21.809-1.609 3.675-4.047 7.13-7.349 9.438-2.973 2.081-6.539 2.713-10.118 2.489-1.164-.077-2.386-.228-3.445-.745-.666-.317-1.223-.839-1.451-1.286-.748-1.418-.348-3.313.246-5.001 1.898-5.483 5.783-10.336 9.383-14.788a179.894 179.894 0 016.625-7.649c.89-.963 1.779-1.927 2.703-2.886.402-.403.771-.81 1.172-1.213.346-.36.615-.629.748-.763 1.307-1.348-.486-3.682-1.811-2.32z"/><path d="M797.352 106.729c-2.041 6.104-5.262 11.692-8.018 17.456-.814 1.71 1.92 2.803 2.734 1.092 2.754-5.763 5.975-11.352 8.016-17.455.607-1.787-2.141-2.898-2.732-1.093zm-32.237 4.547c-7.715.019-16.246.255-23.107 4.237-4.192 2.433-8.645 6.326-10.295 11.019-.699 2.01-.77 4.215.447 6.042 1.401 2.102 3.942 2.986 6.295 3.479 6.15 1.263 12.361-1.792 16.947-5.669 5.016-4.243 9.379-10.127 10.868-16.634.412-1.844-2.514-2.189-2.907-.359-1.07 4.747-4.177 9.143-7.519 12.586-3.627 3.728-8.389 6.996-13.721 7.393-3.352.256-9.102-.991-7.762-5.471 1.153-3.915 4.942-7.17 8.243-9.328 6.359-4.127 14.806-4.357 22.134-4.373 1.879-.002 2.256-2.924.377-2.922z"/><path d="M762.627 112.683c-4.34 3.388-9.006 6.282-13.346 9.67-1.484 1.158.307 3.492 1.811 2.32 4.34-3.388 9.006-6.282 13.346-9.67 1.503-1.172-.307-3.492-1.811-2.32z"/></g><g mask="url(#a)" fill="#DDD"><path d="M1141.93 118.054c11.63 17.846 34.88 34.525 60.78 29.873.71-.123 1.14-.809 1.11-1.407-.44-6.366-4.5-11.985-8.24-16.873-4.45-5.848-9.41-10.859-16.01-14.773-6.09-3.611-12.45-5.567-20.07-5.977-3.82-.213-7.7-.12-11.56.047-1.72.082-3.47.173-5.2.28-1.22.074-2.65-.104-3.8.451-.68.327-.9 1.011-.68 1.559.9 2.453 2.48 4.52 3.67 6.82.66 1.266 3.02.145 2.35-1.137-1.18-2.3-2.76-4.368-3.68-6.795-.24.528-.47 1.056-.69 1.559.77-.373 2.96-.165 3.93-.219 1.63-.094 3.26-.171 4.88-.24 3.48-.14 6.98-.207 10.41-.009 7.35.407 13.38 2.362 19.23 5.869 6.11 3.659 10.66 8.311 14.83 13.704 3.63 4.68 7.67 10.153 8.1 16.306.37-.477.73-.93 1.1-1.407-12.47 2.233-24.37-1.159-34.18-6.654-9.77-5.472-18.08-13.14-23.94-22.13-.77-1.17-3.13-.049-2.34 1.153z"/><path d="M1141.41 112.899c11.68 4.33 22.59 9.946 32.95 16.202 4.46 2.695 9.07 5.161 13.63 7.728 4.76 2.688 9.56 5.613 12.74 9.879.86 1.149 2.88-.481 2.02-1.631-3.07-4.099-7.63-7.043-12.2-9.667-4.86-2.799-9.83-5.403-14.62-8.296-10.55-6.363-21.64-12.01-33.53-16.422-1.46-.537-2.43 1.692-.99 2.207z"/><path d="M1195.08 143.617c-12.59-4.009-25.56-7.876-35.86-15.408-1.19-.871-2.73 1.123-1.55 1.994 10.46 7.64 23.64 11.579 36.42 15.636 1.48.472 2.45-1.742.99-2.222zm-9.97-17.046c-5.81-4.379-12.68-7.173-19.69-9.861-1.43-.556-2.4 1.673-.97 2.213 6.84 2.631 13.48 5.378 19.14 9.633 1.16.906 2.69-1.104 1.52-1.985zm-26.58-2.983c-2.48-1.869-4.69-4.031-7.39-5.676-.53-.336-1.37-.107-1.79.43-.43.546-.3 1.254.26 1.58 2.7 1.646 4.9 3.807 7.39 5.676.5.37 1.4.073 1.79-.43.43-.587.23-1.201-.26-1.58zM1138.3 89.7c20.05 10.164 50.37 14.407 72.67-.146.64-.408.54-1.192.23-1.637-3.66-5.22-10.53-8.276-16.59-10.83-6.7-2.818-13.39-4.873-21.05-5.503-7.69-.637-14.81.136-22.42 2.885-3.91 1.417-7.71 3.157-11.47 4.977-1.67.81-3.36 1.646-5.02 2.472-1.18.589-2.63 1.036-3.48 2.02-.33.377-.38 1.093.01 1.403 2.14 1.754 4.75 2.87 7.12 4.358 1.26.794 2.81-1.2 1.54-1.994-2.18-1.382-4.66-2.397-6.66-3.985-.01.476 0 .927 0 1.403.54-.616 2.91-1.427 3.83-1.873 1.57-.78 3.14-1.56 4.73-2.31 3.39-1.621 6.83-3.163 10.36-4.44 7.28-2.626 14.17-3.191 21.49-2.553 7.3.647 13.68 2.709 20.06 5.427 5.7 2.43 12.08 5.305 15.52 10.2.08-.555.15-1.083.23-1.637-10.73 6.994-23.75 9.015-35.81 8.454-12.02-.563-23.71-3.58-33.74-8.67-1.36-.69-2.9 1.303-1.55 1.978z"/><path d="M1134.9 85.601c13.66-1.222 27.18-1.01 40.53.016 5.5.428 11.05.535 16.57.815 5.55.287 11.3.753 16.16 2.879 1.38.599 2.93-1.38 1.54-1.995-9.54-4.177-21.41-3.007-32.09-3.863-13.94-1.137-28.08-1.443-42.36-.159-1.63.151-1.97 2.458-.35 2.307z"/><path d="M1201.43 89.161c-13.84 1.822-28.01 3.947-41.43 1.924-1.55-.238-2.54 1.984-.97 2.213 13.87 2.1 28.4-.017 42.72-1.894 1.63-.217 1.29-2.45-.32-2.243zm-17.69-10.121c-7.72-1.276-15.6-.829-23.63-.194-1.63.135-1.97 2.442-.34 2.307 7.77-.615 15.49-1.12 23 .1 1.56.254 2.53-1.96.97-2.213zm-26.71 8.449c-3.41-.553-6.68-1.465-10.17-1.735-.65-.043-1.37.541-1.45 1.136-.07.668.4 1.114 1.08 1.18.86.058 1.51.142 2.29.261.83.133 1.64.292 2.46.45 1.6.318 3.16.671 4.78.94.63.109 1.41-.15 1.65-.802.26-.562.04-1.307-.64-1.43z"/></g></svg>