<svg width="18" height="20" fill="none" xmlns="http://www.w3.org/2000/svg"><path d="M12.316 1.454C11.474.517 10.298 0 9 0 7.695 0 6.515.514 5.677 1.445c-.847.943-1.26 2.224-1.163 3.607C4.706 7.78 6.718 10 9 10c2.282 0 4.29-2.22 4.486-4.947.098-1.371-.318-2.649-1.17-3.599zM16.616 20H1.384a1.34 1.34 0 01-1.047-.497c-.281-.347-.395-.82-.311-1.3.365-2.09 1.505-3.846 3.296-5.078C4.915 12.03 6.931 11.429 9 11.429c2.07 0 4.085.602 5.677 1.696 1.791 1.232 2.93 2.988 3.296 5.078a1.62 1.62 0 01-.31 1.3 1.352 1.352 0 01-.47.37 1.3 1.3 0 01-.578.127z" fill="#EFD372"/></svg>