<svg width="1920" height="450" fill="none" xmlns="http://www.w3.org/2000/svg"><mask id="a" maskUnits="userSpaceOnUse" x="0" y="0" width="1920" height="450"><path fill="#E3F1E9" d="M0 0h1920v450H0z"/></mask><g mask="url(#a)" fill="#D1D1D1"><path d="M818.109 110.842c-6.222-2.141-13.934-5.955-14.004-13.584-.04-5.177 2.93-9.951 4.357-14.808 2.743-9.344-.801-19.578-6.771-26.878-6.127-7.5-15.108-12.797-24.686-14.39-4.705-.79-9.568-.653-14.182.575-4.632 1.228-9.061 3.521-13.157 5.982-9.112 5.497-17.208 12.86-23.739 21.253-6.414 8.249-11.602 17.83-13.533 28.192-.884 4.783-1.085 9.789-.229 14.601 1.036 5.784 3.881 11.116 7.611 15.602 7.636 9.173 19.039 15.303 30.587 17.942 11.518 2.612 23.359-.378 31.711-8.867 4.362-4.434 7.274-9.883 10.1-15.358 1.436-2.771 3.138-5.729 6.283-6.75 3.097-1.011 6.286-.022 9.153 1.212 2.468 1.077 4.812 2.421 7.279 3.48.438.192.857.057 1.126-.346 1.192-1.852 2.615-3.523 3.357-5.633.345-1.007-1.274-1.379-1.618-.371-.672 1.938-2.108 3.525-3.201 5.233.382-.116.745-.231 1.127-.346-4.601-1.968-9.15-5.31-14.356-5.294-6.474.028-9.141 5.178-11.735 10.27-2.772 5.416-6.096 10.625-10.734 14.654-4.428 3.844-9.912 6.368-15.724 7.127-11.905 1.563-24.648-3.547-34.095-10.557-4.83-3.586-9.104-8.017-12.004-13.31-2.711-4.95-3.858-10.383-3.743-16.016.202-10.344 4.373-20.297 9.94-28.867 5.837-8.972 13.503-16.866 22.198-23.083 7.786-5.557 16.787-10.412 26.596-10.151 9.772.262 19.294 4.826 26.108 11.751 6.61 6.734 11.231 16.868 9.078 26.437-1.097 4.894-3.824 9.313-4.608 14.3-.845 5.44 1.742 10.329 6.19 13.429 2.709 1.887 5.793 3.123 8.899 4.18 1.064.361 1.426-1.267.419-1.611z"/><path d="M812.376 111.42c-3.527-1.598-7.205-2.9-10.582-4.813-1.645-.925-3.202-2.022-4.541-3.37-1.495-1.531-2.494-3.416-3.502-5.292-3.146-5.942-4.819-12.561-8.354-18.303-6.603-10.7-18.98-17.344-31.336-18.501-6.9-.645-13.875.48-20.092 3.591-.963.482-.082 1.892.871 1.42 11.242-5.612 24.914-4.168 35.682 1.822 5.729 3.191 10.692 7.723 13.991 13.425 3.288 5.675 4.927 12.116 8.068 17.87 1.934 3.548 4.199 6.257 7.686 8.383 3.563 2.16 7.544 3.528 11.328 5.24.972.439 1.763-1.024.781-1.472zm-18.823-4.804c-19.113-2.962-39.496-3.271-57.068-12.24-5.1-2.6-9.743-5.939-13.724-10.04-.739-.767-1.875.444-1.137 1.21 14.39 14.784 35.638 18.11 55.195 20.541 5.462.681 10.932 1.296 16.371 2.138 1.039.173 1.411-1.445.363-1.609z"/><path d="M784.032 96.347c-11.881-14.78-31.169-22.444-49.709-23.902-1.064-.088-1.003 1.573.052 1.653 17.88 1.403 36.776 8.845 48.236 23.102.656.835 2.077-.019 1.421-.853zm-16.296-3.634c-7.702-1.07-14.902-4.422-21.368-8.632-.892-.583-1.673.89-.781 1.472 6.571 4.273 13.943 7.694 21.776 8.778 1.048.145 1.439-1.474.373-1.618zm19.648 20.668c-8.249 2.443-16.738 4.443-25.391 4.211-9.265-.259-17.802-3.389-25.976-7.564-5.702-2.91-11.506-6.39-14.904-11.986-.555-.922-1.975-.05-1.42.872 2.952 4.849 7.634 8.224 12.504 10.973 4.534 2.543 9.295 4.844 14.225 6.519 8.34 2.855 17.099 3.478 25.808 2.213 5.304-.78 10.497-2.101 15.627-3.627 1.024-.315.551-1.907-.473-1.611z"/><path d="M784.705 119.96c-5.975 6.675-13.823 11.426-22.672 13.034-10.064 1.815-20.276-.501-28.474-6.611-4.946-3.695-9.158-8.269-13.642-12.496-.774-.727-1.921.475-1.136 1.211 8.337 7.863 16.219 16.812 27.959 19.266 9.014 1.884 18.45.719 26.664-3.471 4.754-2.426 8.961-5.821 12.521-9.788.707-.812-.503-1.948-1.22-1.145z"/><path d="M758.51 124.93c-5.887.16-11.81-1.118-16.485-4.868-.829-.669-1.966.541-1.137 1.21 5.023 4.041 11.318 5.504 17.665 5.32 1.08-.025 1.027-1.696-.043-1.662zm14.909-13.942c-7.173-.1-14.234-1.407-21.192-3.055-1.042-.249-1.414 1.37-.373 1.618 7.092 1.682 14.303 3.003 21.608 3.099 1.081.012 1.029-1.64-.043-1.662zm-36.5-8.441c-3.68-1.687-7.312-3.347-10.04-6.437-.711-.795-1.848.416-1.137 1.211 2.826 3.199 6.611 4.949 10.415 6.697.954.44 1.744-1.023.762-1.471zm-2.165-19.036c-3.447-1.45-6.717-3.244-10.174-4.684-.98-.411-1.761 1.061-.78 1.472 3.447 1.45 6.717 3.244 10.173 4.684.99.4 1.771-1.052.781-1.472zm65.452 6.879c-1.899-7.834-3.249-16.117-8.294-22.675-5.309-6.898-13.2-11.9-21.619-13.971-4.896-1.207-9.979-1.477-14.994-1.064-1.068.09-1.016 1.743.052 1.653 11.332-.935 21.999 2.099 30.644 9.576 3.922 3.39 6.898 7.515 8.732 12.371 1.773 4.708 2.691 9.707 3.887 14.583.258 1.045 1.84.562 1.592-.473zm.481-22.146c-2.16-3.85-4.312-7.766-7.236-11.113-2.982-3.42-6.742-5.837-11.078-7.174-1.016-.315-1.388 1.304-.373 1.619 4.204 1.304 7.748 3.738 10.588 7.096 2.683 3.157 4.659 6.853 6.679 10.444.527.932 1.938.07 1.42-.872z"/></g><g mask="url(#a)" fill="#E1D4DB"><path d="M778.091 369.062c2.729-8.491 2.482-18.96-.549-27.333-2.091-5.762-6.876-13.269-14.128-11.661-6.352 1.416-8.995 9.047-8.895 14.824.122 6.49 1.989 13.361 5.353 18.937 1.657 2.749 3.895 5.446 6.87 6.857 3.123 1.488 6.417 1.188 9.497-.254 1.676-.782.158-3.211-1.502-2.446-11.044 5.146-16.439-13.045-17.211-20.647-.493-4.891.214-11.261 5.069-13.926 5.524-3.042 10.244 3.932 11.869 8.253 3.109 8.288 3.553 18.314.838 26.788-.561 1.735 2.229 2.374 2.789.608z"/><path d="M775.903 368.485c-3.5-5.766-5.118-12.435-6.922-18.871-.493-1.781-3.252-.949-2.744.816 1.877 6.661 3.615 13.568 7.235 19.541.94 1.573 3.403.086 2.431-1.486zm-19.436 7.598c-4.407-3.163-8.906-6.194-13.591-8.959-5.346-3.166-11.316-6.635-17.548-7.586-2.196-.335-4.641-.338-6.526 1.002-2.075 1.475-2.641 4.083-2.582 6.494.086 3.787 1.182 7.768 3.511 10.77 2.666 3.445 6.479 5.769 10.524 7.21 8.662 3.076 20.742 2.545 26.125-5.998.988-1.553-1.564-2.881-2.536-1.344-4.195 6.676-13.801 7.079-20.642 5.273-3.772-.997-7.456-2.823-10.168-5.651-2.443-2.545-3.584-5.877-3.903-9.349-.1-1.13-.138-2.327.2-3.423.206-.686.624-1.299 1.019-1.587 1.25-.93 3.132-.828 4.842-.51 5.553 1.005 10.797 4.012 15.612 6.805a175.382 175.382 0 0111.518 7.389c.447.326.894.62 1.341.945.397.279.696.496.845.605 1.49 1.054 3.466-1.017 1.959-2.086z"/><path d="M754.257 377.4c-6.17-1.05-12.021-3.309-17.971-5.095-1.765-.526-2.407 2.263-.641 2.79 5.949 1.786 11.801 4.044 17.971 5.094 1.807.315 2.464-2.491.641-2.789zm-9.19-30.296c-1.171-7.411-2.674-15.573-7.525-21.572-2.964-3.662-7.371-7.359-12.127-8.244-2.036-.372-4.165-.11-5.739 1.333-1.81 1.66-2.28 4.234-2.401 6.57-.295 6.097 3.569 11.609 7.98 15.436 4.827 4.186 11.132 7.499 17.608 7.956 1.833.12 1.727-2.743-.09-2.847-4.722-.319-9.409-2.647-13.218-5.343-4.124-2.929-7.976-7.017-9.155-12.08-.747-3.182-.408-8.893 4.097-8.275 3.935.522 7.628 3.675 10.195 6.524 4.917 5.495 6.4 13.576 7.511 20.617.283 1.805 3.147 1.73 2.864-.075z"/><path d="M743.347 344.924c-3.904-3.664-7.383-7.715-11.286-11.38-1.335-1.253-3.311.818-1.959 2.087 3.904 3.665 7.382 7.715 11.286 11.38 1.351 1.268 3.31-.818 1.959-2.087z"/></g><g mask="url(#a)" fill="#DDD9DA"><path d="M927.372 400.265c26.481 11.675 64.063 15.049 87.148-5.608.63-.56.53-1.545.01-2.152-5.6-6.426-14.36-9.857-22.178-12.72-9.344-3.434-18.531-5.684-28.542-5.776-9.228-.089-17.396 1.724-25.631 5.935-4.128 2.1-8.07 4.558-11.941 7.087a387.565 387.565 0 00-5.166 3.461c-1.202.819-2.831 1.504-3.571 2.786-.437.756-.118 1.612.551 2.055 2.925 2.025 6.235 3.235 9.32 4.932 1.706.93 3.244-1.685 1.516-2.626-3.085-1.697-6.395-2.908-9.31-4.899l.551 2.055c.497-.862 2.935-1.976 3.898-2.624 1.61-1.089 3.24-2.164 4.858-3.219 3.497-2.269 7.065-4.467 10.789-6.352 7.941-4.044 15.771-5.66 24.671-5.536 9.292.125 17.768 2.245 26.445 5.377 7.549 2.706 16.16 5.997 21.58 12.206 0-.729.01-1.424.01-2.153-11.13 9.941-26.203 13.621-40.81 13.817-14.553.199-29.361-2.803-42.703-8.684-1.749-.758-3.286 1.856-1.495 2.638z"/><path d="M922.663 395.165c15.608-2.56 31.455-3.301 47.253-3.034 6.801.117 13.568-.095 20.37-.174 7.107-.072 14.454.077 21.194 2.625 1.82.686 2.59-2.257.77-2.943-6.5-2.436-13.601-2.755-20.454-2.734-7.299.017-14.56.308-21.861.183-16.081-.262-32.139.553-48.021 3.151-1.956.328-1.152 3.257.749 2.926z"/><path d="M1003.13 394.775c-16.297 3.454-32.861 7.282-49.632 5.641-1.935-.193-1.921 2.842.014 3.034 17.009 1.667 33.86-2.221 50.388-5.737 1.91-.406 1.13-3.324-.77-2.938zm-24.116-11.848c-9.561-1.065-18.946.185-28.386 1.627-1.931.286-1.127 3.216.783 2.918 9.22-1.402 18.327-2.56 27.63-1.531 1.932.247 1.897-2.8-.027-3.014zm-29.96 13.046c-4.084-.453-8.118-1.381-12.245-1.467-.825-.027-1.512.725-1.506 1.541-.007.836.704 1.499 1.541 1.506 4.128.086 8.162 1.014 12.246 1.466.821.083 1.515-.778 1.506-1.54-.024-.882-.732-1.403-1.542-1.506zm-48.365-23.301c29-1.525 63.857-15.525 75.197-44.393.332-.817-.406-1.579-1.085-1.859-8.017-3.256-17.602-2.29-25.95-1.282-9.225 1.119-17.811 3.026-26.262 7.028-8.484 4.012-15.241 9.16-20.9 16.68-2.907 3.869-5.438 8.011-7.865 12.214a592.016 592.016 0 00-3.209 5.656c-.743 1.336-1.89 2.691-1.972 4.241-.035.595.494 1.378 1.141 1.471 3.644.535 7.247.121 10.905.244 1.954.063 1.94-2.971-.014-3.034-3.375-.128-6.773.32-10.129-.132.383.501.758.97 1.141 1.471.059-.975 1.86-3.269 2.454-4.299.998-1.777 1.996-3.554 3.036-5.307 2.205-3.771 4.515-7.48 7.149-10.974 5.411-7.187 12.104-11.981 20.204-15.765 8.089-3.764 16.37-5.483 25.176-6.507 7.874-.917 16.812-1.78 24.33 1.271-.365-.631-.721-1.228-1.086-1.859-5.462 13.881-17.32 23.93-30.274 30.683-12.91 6.724-27.47 10.674-41.98 11.43-1.964.099-1.949 3.133-.007 3.022z"/><path d="M893.852 370.433c13.168-9.6 27.35-17.606 42.02-24.658 6.046-2.898 11.886-6.166 17.833-9.232 5.981-3.076 12.317-6.086 19.071-6.809 1.916-.211 1.922-3.233-.015-3.035-13.266 1.419-24.626 9.878-36.381 15.475-15.368 7.293-30.275 15.582-44.035 25.625-1.558 1.145-.052 3.78 1.507 2.634z"/><path d="M965.677 333.676c-12.864 10.336-25.836 21.199-41.38 27.242-1.804.696-1.033 3.634.783 2.917 16.077-6.239 29.421-17.307 42.741-27.996 1.52-1.224-.636-3.366-2.144-2.163zm-26.513.131c-9.032 3.359-16.841 8.629-24.644 14.182-1.58 1.133-.073 3.768 1.506 2.635 7.565-5.383 15.154-10.612 23.921-13.899 1.824-.684 1.042-3.602-.783-2.918zm-20.851 25.141c-3.972 1.49-8.101 2.524-11.942 4.369-.706.348-.975 1.398-.581 2.074.467.746 1.315.927 2.075.582a28.519 28.519 0 012.58-1.117c.968-.366 1.945-.698 2.922-1.031 1.908-.635 3.814-1.216 5.705-1.917.744-.271 1.344-1.017 1.067-1.849-.183-.751-1.015-1.399-1.826-1.111z"/></g><g mask="url(#a)" fill="#D3CBCF"><path d="M1298.95 80.285c5.76-8.15 10.93-17.871 11.34-28.018.39-9.623-4.75-17.6-13.28-21.957-7.77-3.966-16.92-5.235-25.57-5.563-9.67-.365-19.67.498-28.98 3.318-6.59 2.008-13.61 5.09-16.71 11.658-2.71 5.733-1.62 12.322.42 18.049 2.48 6.983 6.51 13.384 10.87 19.334 4.07 5.594 8.56 11.33 13.77 15.917 6.69 5.904 15.37 9.1 24.24 6.53 10.23-2.96 17.03-11.164 23.99-18.66.93-1.008-.48-2.632-1.43-1.616-5.9 6.372-11.53 13.316-19.68 16.944-7.02 3.135-14.59 2.607-21.11-1.397-5.92-3.661-10.49-9.359-14.79-14.747-4.18-5.257-8.07-10.827-11.11-16.83-2.76-5.43-5.18-11.698-4.52-17.922.7-6.43 5.28-10.613 10.98-13.143 7.88-3.514 16.8-4.845 25.32-5.256 8.83-.425 17.95.129 26.43 2.624 9.43 2.77 17.92 8.925 18.92 19.342 1.03 10.78-4.88 21.642-10.9 30.19-.8 1.155.99 2.344 1.8 1.204z"/><path d="M1299.05 80.909c1.73-1.972 3.85-3.788 6.49-4.293 2.19-.415 4.4.168 6.36 1.12 4.59 2.23 8.29 6.06 12.2 9.255 2.02 1.667 4.13 3.273 6.58 4.312.15-.683.29-1.382.43-2.08-10.76-1.819-24.64.194-31.55-10.11-.77-1.135-2.39.284-1.64 1.427 7.31 10.875 21.69 8.904 33.03 10.826 1.28.217 1.49-1.643.44-2.088-4.69-2.008-8.39-6.146-12.28-9.287-3.77-3.032-8.42-6.285-13.55-5.558-3.21.455-5.87 2.513-7.95 4.867-.91 1.032.5 2.656 1.44 1.609z"/><path d="M1298.33 82.042c5.45 5.819 9.75 13.614 8.11 21.822l1.68-.819c-3.66-2.17-6.2-5.97-7.86-9.803-1.65-3.832-2.69-8.445-1.31-12.534.43-1.32-1.6-2.01-2.03-.69-1.53 4.542-.52 9.57 1.27 13.872 1.79 4.264 4.67 8.55 8.74 10.939.75.435 1.52-.013 1.68-.819 1.75-8.739-2.84-17.212-8.63-23.402-.97-.999-2.61.428-1.65 1.434z"/><path d="M1299.07 80.04c4.76-12.1 19.24-17.116 30.74-11.587-.12-.608-.25-1.216-.35-1.816-2.15 2.061-4.08 4.34-6.24 6.385-2.04 1.947-4.39 3.992-7.29 4.318-1.39.16-.99 2.254.39 2.117 6.19-.688 10.45-7.249 14.58-11.211.63-.611.39-1.466-.34-1.817-12.6-6.044-28.33-.17-33.5 12.928-.53 1.289 1.5 1.979 2.01.683zm3.87-31.56c-1.49-1.147-3.35-1.46-5.15-1.826-.25-.047-.6.104-.79.272-.19.168-.35.459-.36.728-.01.292.06.585.27.786.21.224.44.303.73.35.06.009.13.033.19.04.11.025.23.04.34.065.22.047.45.087.67.15.39.095.79.19 1.17.308.18.047.35.118.52.188.07.039.17.07.24.11.05.015.1.03.13.054.17.086-.26-.125-.08-.04.34.18.64.374.94.592.44.34 1.22.17 1.51-.313.29-.506.15-1.106-.33-1.463zm-9.87 18.48c-1.02-.208-2-.591-2.94-1.028-.06-.031-.1-.047-.16-.078.13.07.08.039-.02-.008-.12-.055-.23-.117-.35-.171-.23-.117-.47-.25-.68-.374-.48-.265-.96-.545-1.45-.825-.48-.28-1.18-.223-1.5.313-.29.467-.23 1.182.3 1.494 1.93 1.105 3.9 2.263 6.1 2.717.3.063.54.08.82-.056.24-.114.48-.366.55-.612.14-.506-.09-1.254-.67-1.373zm-15.94 20.144l-.65-.028c-.1-.008-.2-.016-.31-.04-.06-.008-.1-.024-.17-.032-.04 0-.21-.048-.02-.008s.02-.007-.02-.008c-.06-.008-.11-.023-.17-.032-.11-.023-.23-.063-.33-.086-.2-.056-.4-.134-.59-.212-.1-.047-.19-.078-.29-.125-.15-.078 0 0 .07.024-.05-.032-.1-.047-.15-.078-.19-.102-.38-.218-.57-.335-.19-.116-.38-.256-.55-.38-.1-.085-.19-.155-.29-.24-.07-.063-.18-.202 0 .015-.04-.054-.1-.085-.14-.14-.21-.2-.44-.34-.73-.35-.26-.025-.6.08-.79.27-.38.375-.54 1.105-.11 1.523.83.759 1.74 1.388 2.78 1.833.9.383 1.88.574 2.85.58.56.012 1.14-.384 1.17-.991.01-.561-.39-1.148-.99-1.16zm8.7-34.734c-1.69-.703-3.44-1.414-5.32-1.434-.57-.012-1.14.384-1.17.991-.03.546.38 1.148.98 1.16.44-.005.88.052 1.32.124.04 0 .08.016.13.032-.29-.033-.11-.024-.05-.016.11.024.22.048.32.072.22.047.43.118.63.173.84.26 1.64.596 2.44.931.51.227 1.22-.137 1.36-.667.2-.59-.08-1.123-.64-1.365zm-10.98 16.557c-1.6-.326-3.13-1.013-4.63-1.653-.53-.22-1.23.138-1.37.667-.18.583.11 1.131.66 1.358 1.5.625 3.03 1.312 4.64 1.654.3.063.54.08.82-.056.23-.114.47-.366.55-.612.08-.268.08-.576-.05-.815-.12-.232-.34-.487-.62-.543zm3.35-30.863c-2.84-.58-5.61-1.484-8.46-2.064-.55-.112-1.2.069-1.37.667-.16.499.07 1.246.67 1.358 2.84.58 5.61 1.483 8.45 2.064.56.111 1.2-.069 1.37-.667.15-.492-.08-1.239-.66-1.358zm-11.25 16.501c-1.49-.287-3.02-.266-4.51-.553-.25-.048-.6.103-.79.271-.19.168-.35.46-.36.728-.01.292.06.585.27.786.21.225.44.303.73.351 1.49.287 3.02.267 4.51.554.25.047.6-.104.79-.272.19-.168.35-.459.36-.728.01-.292-.06-.584-.27-.786-.22-.217-.44-.303-.73-.35zm-8.47 22.44c-1.9-1.097-3.9-2.033-5.71-3.29-.46-.327-1.2-.178-1.5.312-.31.513-.21 1.152.3 1.494 1.83 1.25 3.81 2.194 5.71 3.29.48.28 1.19.224 1.5-.312.27-.475.21-1.19-.3-1.494zm-.45-32.757c-1.94-.39-3.78-1.118-5.73-1.523-.3-.064-.54-.08-.82.056-.23.114-.47.366-.55.611-.16.499.07 1.246.67 1.358 1.94.39 3.78 1.117 5.73 1.523.3.063.53.08.82-.056.23-.114.47-.366.54-.612.15-.49-.08-1.238-.66-1.357zm-6.34 18.195a108.13 108.13 0 00-5.58-2.206c-.53-.18-1.22.114-1.37.667-.17.56.1 1.154.66 1.358 1.89.666 3.74 1.424 5.58 2.206.53.219 1.23-.138 1.37-.668.18-.583-.11-1.13-.66-1.357zm-11.46-16.509c-1.64-.687-3.26-1.367-4.89-2.063-.53-.218-1.22.138-1.37.668-.18.583.11 1.13.66 1.357 1.63.696 3.27 1.368 4.9 2.063.53.22 1.22-.137 1.37-.667.18-.568-.1-1.116-.67-1.358zm5.87-10.494c-.44.005-.88-.052-1.32-.124-.04 0-.08-.016-.13-.032.29.033.11.024.05.016a16.33 16.33 0 01-.32-.072c-.22-.047-.43-.118-.63-.173-.84-.26-1.64-.595-2.44-.931-.53-.22-1.22.137-1.36.667-.18.583.1 1.131.66 1.358 1.69.703 3.44 1.415 5.32 1.435.56.012 1.14-.384 1.17-.992 0-.553-.41-1.156-1-1.152zm-6.72 26.28c-.58-.118-1.15-.3-1.68-.572.07.039.16.07.25.125-.66-.328-1.27-.755-1.85-1.22-.19-.155-.54-.211-.79-.167-.26.052-.56.235-.7.457-.14.237-.23.513-.18.79.07.293.23.502.46.696 1.12.884 2.37 1.615 3.78 1.901.3.064.54.08.82-.056.23-.113.47-.365.54-.611.09-.269.09-.576-.05-.815-.1-.216-.32-.471-.6-.527zm25.39 29.614c-1.84-.782-3.6-1.778-5.58-2.206-.3-.064-.54-.08-.82.056-.23.113-.48.365-.55.611-.16.499.07 1.246.66 1.358 1.99.405 3.74 1.424 5.58 2.206.52.226 1.23-.138 1.37-.668.2-.59-.1-1.115-.66-1.357zm28.05-55.547c-1.29-.747-2.72-1.326-4.2-1.635-.3-.064-.54-.081-.82.056-.24.113-.48.365-.55.61-.08.27-.09.577.05.816.13.224.35.48.61.543 1.16.238 2.26.653 3.31 1.175-.08-.039-.17-.07-.26-.124.23.101.43.21.65.335.24.147.51.21.79.166.27-.052.56-.234.7-.456.3-.467.24-1.183-.28-1.486z"/><path d="M1299.89 80.438c3.34 1.068 6.72 2.075 9.94 3.442.53.22 1.2-.145 1.37-.667.2-.575-.13-1.139-.66-1.358-3.24-1.36-6.6-2.359-9.95-3.435-.55-.173-1.18.115-1.37.667-.18.545.11 1.185.67 1.35z"/></g></svg>