<svg width="1920" height="450" fill="none" xmlns="http://www.w3.org/2000/svg"><mask id="a" maskUnits="userSpaceOnUse" x="0" y="0" width="1920" height="450"><path fill="#E3F1E9" d="M0 0h1920v450H0z"/></mask><g mask="url(#a)" fill="#D1D1D1"><path d="M818.109 110.842c-6.223-2.141-13.935-5.955-14.005-13.584-.04-5.176 2.931-9.951 4.358-14.808 2.742-9.344-.801-19.578-6.772-26.878-6.126-7.5-15.107-12.797-24.686-14.39-4.704-.79-9.568-.653-14.181.575-4.632 1.228-9.062 3.521-13.157 5.982-9.113 5.497-17.208 12.86-23.74 21.253-6.414 8.249-11.602 17.83-13.533 28.192-.884 4.783-1.084 9.789-.229 14.601 1.036 5.784 3.882 11.116 7.612 15.602 7.636 9.173 19.039 15.303 30.586 17.942 11.518 2.612 23.36-.378 31.711-8.867 4.363-4.434 7.274-9.883 10.101-15.358 1.435-2.771 3.138-5.729 6.282-6.75 3.098-1.01 6.286-.022 9.153 1.212 2.468 1.077 4.813 2.421 7.28 3.48.438.192.857.057 1.126-.346 1.192-1.852 2.615-3.523 3.357-5.633.344-1.007-1.274-1.378-1.619-.371-.672 1.938-2.107 3.525-3.2 5.233.382-.116.744-.231 1.126-.346-4.6-1.968-9.15-5.31-14.356-5.294-6.474.028-9.141 5.178-11.735 10.27-2.772 5.416-6.095 10.625-10.733 14.654-4.428 3.844-9.913 6.368-15.725 7.127-11.904 1.563-24.647-3.547-34.095-10.557-4.83-3.586-9.103-8.017-12.004-13.31-2.711-4.95-3.858-10.383-3.743-16.016.202-10.344 4.373-20.297 9.941-28.866 5.837-8.973 13.502-16.867 22.198-23.084 7.785-5.557 16.786-10.411 26.596-10.15 9.772.26 19.293 4.825 26.107 11.75 6.61 6.734 11.232 16.868 9.078 26.437-1.096 4.894-3.824 9.313-4.608 14.3-.844 5.44 1.743 10.329 6.191 13.429 2.709 1.887 5.792 3.123 8.898 4.18 1.064.361 1.427-1.267.42-1.611z"/><path d="M812.376 111.42c-3.527-1.598-7.205-2.9-10.582-4.813-1.645-.925-3.202-2.022-4.541-3.37-1.495-1.531-2.494-3.416-3.502-5.292-3.146-5.942-4.819-12.561-8.354-18.303-6.603-10.7-18.98-17.344-31.336-18.501-6.9-.645-13.875.48-20.092 3.591-.963.482-.082 1.892.871 1.42 11.242-5.612 24.914-4.168 35.683 1.822 5.728 3.192 10.691 7.723 13.99 13.425 3.288 5.675 4.927 12.116 8.068 17.871 1.934 3.547 4.199 6.256 7.686 8.382 3.563 2.161 7.544 3.528 11.328 5.24.972.439 1.763-1.024.781-1.472zm-18.823-4.804c-19.113-2.962-39.496-3.271-57.068-12.24-5.1-2.6-9.743-5.939-13.725-10.04-.738-.767-1.875.444-1.137 1.21 14.39 14.784 35.638 18.11 55.195 20.541 5.463.681 10.932 1.296 16.372 2.138 1.039.173 1.411-1.445.363-1.609z"/><path d="M784.032 96.347c-11.881-14.78-31.169-22.444-49.709-23.902-1.064-.088-1.003 1.573.052 1.653 17.88 1.403 36.776 8.845 48.236 23.102.656.835 2.076-.019 1.421-.853zm-16.296-3.634c-7.702-1.07-14.902-4.421-21.368-8.632-.892-.583-1.673.89-.781 1.472 6.571 4.273 13.943 7.694 21.776 8.779 1.048.145 1.439-1.475.373-1.62zm19.648 20.668c-8.25 2.443-16.739 4.443-25.392 4.211-9.264-.259-17.801-3.389-25.976-7.564-5.701-2.91-11.505-6.39-14.904-11.986-.555-.922-1.975-.05-1.419.873 2.952 4.849 7.634 8.223 12.503 10.972 4.534 2.543 9.296 4.844 14.225 6.52 8.34 2.854 17.1 3.477 25.809 2.212 5.304-.78 10.497-2.101 15.627-3.627 1.024-.315.551-1.907-.473-1.611z"/><path d="M784.704 119.96c-5.975 6.675-13.823 11.427-22.672 13.034-10.064 1.815-20.276-.501-28.474-6.611-4.946-3.695-9.158-8.269-13.642-12.496-.774-.727-1.921.475-1.136 1.211 8.337 7.863 16.219 16.812 27.958 19.267 9.015 1.883 18.451.718 26.665-3.472 4.754-2.426 8.961-5.821 12.521-9.788.707-.811-.503-1.948-1.22-1.145z"/><path d="M758.51 124.93c-5.888.16-11.81-1.117-16.485-4.868-.83-.669-1.966.542-1.137 1.211 5.022 4.04 11.317 5.503 17.664 5.319 1.08-.025 1.028-1.696-.042-1.662zm14.908-13.942c-7.173-.1-14.234-1.407-21.192-3.055-1.042-.249-1.414 1.37-.373 1.619 7.092 1.681 14.303 3.002 21.608 3.098 1.081.013 1.029-1.64-.043-1.662zm-36.499-8.441c-3.68-1.687-7.312-3.347-10.04-6.437-.711-.795-1.848.416-1.137 1.211 2.826 3.199 6.611 4.949 10.415 6.697.954.44 1.744-1.023.762-1.471zm-2.165-19.036c-3.448-1.45-6.718-3.244-10.174-4.684-.981-.41-1.762 1.061-.781 1.472 3.447 1.45 6.717 3.244 10.174 4.684.99.401 1.771-1.052.781-1.472zm65.451 6.879c-1.899-7.834-3.248-16.117-8.293-22.675-5.309-6.898-13.2-11.9-21.619-13.971-4.896-1.207-9.979-1.477-14.994-1.064-1.069.09-1.017 1.743.052 1.653 11.332-.935 21.999 2.099 30.644 9.576 3.921 3.39 6.898 7.515 8.732 12.371 1.773 4.708 2.69 9.707 3.886 14.583.258 1.045 1.841.562 1.592-.473zm.482-22.146c-2.16-3.85-4.312-7.766-7.236-11.112-2.983-3.42-6.743-5.838-11.079-7.175-1.015-.315-1.388 1.304-.372 1.619 4.204 1.304 7.747 3.738 10.587 7.096 2.683 3.157 4.66 6.853 6.68 10.444.527.932 1.938.07 1.42-.872z"/></g><g mask="url(#a)" fill="#E1D4DB"><path d="M533.091 102.061c2.729-8.49 2.483-18.96-.548-27.332-2.092-5.763-6.877-13.27-14.129-11.662-6.352 1.417-8.995 9.047-8.895 14.825.122 6.49 1.989 13.36 5.353 18.937 1.657 2.748 3.895 5.446 6.87 6.857 3.123 1.487 6.417 1.188 9.497-.254 1.676-.782.158-3.211-1.502-2.446-11.044 5.145-16.439-13.046-17.211-20.648-.493-4.89.214-11.26 5.07-13.925 5.523-3.042 10.243 3.932 11.868 8.252 3.109 8.289 3.553 18.314.839 26.789-.561 1.734 2.228 2.374 2.788.607z"/><path d="M530.902 101.484c-3.5-5.766-5.117-12.434-6.922-18.87-.493-1.782-3.252-.95-2.743.816 1.876 6.66 3.615 13.568 7.234 19.541.94 1.573 3.403.086 2.431-1.487zm-19.436 7.598c-4.406-3.163-8.905-6.193-13.59-8.959-5.346-3.165-11.316-6.634-17.548-7.585-2.196-.335-4.641-.338-6.526 1.001-2.075 1.475-2.641 4.084-2.582 6.495.086 3.786 1.182 7.767 3.511 10.769 2.666 3.446 6.479 5.769 10.524 7.211 8.662 3.076 20.741 2.545 26.125-5.998.988-1.554-1.563-2.881-2.536-1.345-4.195 6.676-13.801 7.079-20.642 5.273-3.772-.997-7.456-2.822-10.168-5.651-2.443-2.545-3.584-5.877-3.903-9.348-.1-1.13-.138-2.327.2-3.423.206-.687.624-1.3 1.019-1.587 1.25-.93 3.132-.829 4.842-.51 5.553 1.004 10.797 4.011 15.612 6.805a175.364 175.364 0 0111.518 7.389c.447.326.894.619 1.341.945.397.279.696.496.845.605 1.49 1.053 3.466-1.018 1.958-2.087z"/><path d="M509.257 110.399c-6.17-1.05-12.022-3.308-17.972-5.094-1.765-.527-2.406 2.263-.641 2.789 5.95 1.786 11.801 4.045 17.971 5.095 1.807.315 2.464-2.491.642-2.79zm-9.19-30.295c-1.171-7.412-2.673-15.574-7.524-21.572-2.965-3.662-7.372-7.36-12.128-8.244-2.035-.373-4.165-.11-5.739 1.332-1.81 1.66-2.28 4.234-2.401 6.57-.295 6.098 3.57 11.61 7.98 15.436 4.827 4.186 11.133 7.5 17.608 7.957 1.833.12 1.728-2.743-.089-2.847-4.722-.32-9.41-2.648-13.219-5.344-4.123-2.929-7.976-7.016-9.154-12.08-.747-3.182-.408-8.892 4.097-8.275 3.934.523 7.628 3.676 10.195 6.525 4.916 5.494 6.4 13.576 7.511 20.617.283 1.804 3.147 1.73 2.863-.075z"/><path d="M498.347 77.924c-3.904-3.665-7.383-7.716-11.287-11.38-1.334-1.253-3.31.818-1.958 2.086 3.903 3.665 7.382 7.716 11.286 11.38 1.351 1.269 3.31-.818 1.959-2.086z"/></g><g mask="url(#a)" fill="#DDD9DA"><path d="M1142.37 387.265c26.48 11.675 64.07 15.049 87.15-5.608.63-.56.53-1.545.01-2.152-5.6-6.426-14.36-9.857-22.18-12.72-9.34-3.434-18.53-5.684-28.54-5.776-9.23-.089-17.4 1.724-25.63 5.935-4.13 2.1-8.07 4.558-11.94 7.087a381.55 381.55 0 00-5.17 3.461c-1.2.819-2.83 1.504-3.57 2.786-.44.756-.12 1.612.55 2.055 2.93 2.025 6.24 3.235 9.32 4.932 1.71.93 3.25-1.685 1.52-2.626-3.09-1.697-6.4-2.908-9.31-4.899.18.696.37 1.392.55 2.055.5-.862 2.93-1.976 3.9-2.624 1.61-1.089 3.24-2.164 4.86-3.219 3.49-2.269 7.06-4.467 10.78-6.352 7.95-4.044 15.78-5.66 24.68-5.536 9.29.125 17.76 2.245 26.44 5.377 7.55 2.706 16.16 5.997 21.58 12.206 0-.729.01-1.424.01-2.153-11.13 9.941-26.2 13.621-40.81 13.817-14.55.199-29.36-2.803-42.7-8.684-1.75-.758-3.29 1.856-1.5 2.638z"/><path d="M1137.66 382.165c15.61-2.56 31.46-3.301 47.26-3.034 6.8.117 13.56-.095 20.37-.174 7.1-.072 14.45.077 21.19 2.625 1.82.686 2.59-2.257.77-2.943-6.5-2.436-13.6-2.755-20.45-2.734-7.3.017-14.56.308-21.87.183-16.08-.262-32.13.553-48.02 3.151-1.95.328-1.15 3.257.75 2.926z"/><path d="M1218.12 381.775c-16.29 3.454-32.85 7.282-49.62 5.641-1.94-.193-1.92 2.842.01 3.034 17.01 1.667 33.86-2.221 50.39-5.737 1.91-.406 1.13-3.324-.78-2.938zm-24.11-11.848c-9.56-1.065-18.94.185-28.38 1.627-1.93.286-1.13 3.216.78 2.918 9.22-1.402 18.33-2.56 27.63-1.531 1.93.247 1.9-2.8-.03-3.014zm-29.96 13.046c-4.08-.453-8.11-1.381-12.24-1.467-.83-.027-1.51.725-1.51 1.541 0 .836.71 1.499 1.54 1.506 4.13.086 8.17 1.014 12.25 1.466.82.083 1.51-.778 1.51-1.54-.03-.882-.74-1.403-1.55-1.506zm-48.36-23.301c29-1.525 63.86-15.525 75.2-44.393.33-.817-.41-1.579-1.09-1.859-8.02-3.256-17.6-2.29-25.95-1.282-9.22 1.119-17.81 3.026-26.26 7.028-8.48 4.012-15.24 9.16-20.9 16.68-2.91 3.869-5.44 8.011-7.87 12.214-1.07 1.87-2.15 3.773-3.2 5.656-.75 1.336-1.89 2.691-1.98 4.241-.03.595.5 1.378 1.14 1.471 3.65.535 7.25.121 10.91.244 1.95.064 1.94-2.971-.01-3.034-3.38-.127-6.78.32-10.13-.132.38.501.75.97 1.14 1.471.06-.975 1.86-3.269 2.45-4.299 1-1.777 2-3.554 3.04-5.307 2.2-3.771 4.51-7.48 7.15-10.974 5.41-7.187 12.1-11.981 20.2-15.765 8.09-3.764 16.37-5.483 25.18-6.507 7.87-.917 16.81-1.78 24.33 1.271l-1.09-1.859c-5.46 13.881-17.32 23.93-30.27 30.683-12.91 6.724-27.47 10.674-41.98 11.43-1.97.099-1.95 3.133-.01 3.022z"/><path d="M1108.85 357.434c13.17-9.601 27.35-17.607 42.02-24.659 6.05-2.898 11.89-6.166 17.84-9.232 5.98-3.076 12.31-6.086 19.07-6.809 1.91-.211 1.92-3.233-.02-3.035-13.26 1.419-24.62 9.878-36.38 15.475-15.37 7.293-30.27 15.582-44.03 25.625-1.56 1.145-.06 3.78 1.5 2.635z"/><path d="M1180.68 320.676c-12.87 10.336-25.84 21.199-41.38 27.242-1.81.696-1.04 3.634.78 2.917 16.08-6.239 29.42-17.307 42.74-27.996 1.52-1.224-.63-3.366-2.14-2.163zm-26.52.131c-9.03 3.359-16.84 8.629-24.64 14.182-1.58 1.133-.07 3.768 1.51 2.635 7.56-5.383 15.15-10.612 23.92-13.899 1.82-.684 1.04-3.602-.79-2.918zm-20.85 25.141c-3.97 1.49-8.1 2.524-11.94 4.369-.7.348-.97 1.398-.58 2.074.47.746 1.32.927 2.08.582.94-.466 1.67-.769 2.58-1.117.96-.366 1.94-.698 2.92-1.031 1.91-.635 3.81-1.216 5.7-1.917.75-.271 1.35-1.017 1.07-1.849-.18-.751-1.02-1.399-1.83-1.111z"/></g><g mask="url(#a)" fill="#D3CBCF"><path d="M1298.95 80.285c5.75-8.15 10.93-17.871 11.34-28.018.39-9.623-4.75-17.6-13.28-21.957-7.77-3.966-16.92-5.235-25.57-5.563-9.67-.365-19.67.498-28.98 3.318-6.59 2.008-13.61 5.09-16.71 11.658-2.71 5.733-1.62 12.322.42 18.049 2.48 6.983 6.51 13.384 10.87 19.334 4.07 5.594 8.56 11.33 13.77 15.917 6.69 5.904 15.37 9.1 24.24 6.53 10.23-2.96 17.03-11.164 23.99-18.66.93-1.008-.48-2.632-1.43-1.616-5.9 6.372-11.53 13.316-19.68 16.944-7.02 3.135-14.59 2.607-21.11-1.397-5.92-3.661-10.49-9.359-14.79-14.747-4.18-5.257-8.07-10.827-11.11-16.83-2.76-5.43-5.18-11.698-4.52-17.922.7-6.43 5.28-10.613 10.98-13.143 7.88-3.514 16.8-4.845 25.32-5.256 8.83-.425 17.95.129 26.43 2.624 9.43 2.77 17.92 8.925 18.92 19.342 1.03 10.78-4.88 21.642-10.9 30.19-.8 1.155.99 2.344 1.8 1.204z"/><path d="M1299.05 80.909c1.73-1.972 3.85-3.788 6.49-4.293 2.19-.415 4.4.168 6.36 1.12 4.59 2.23 8.29 6.06 12.2 9.255 2.02 1.667 4.13 3.273 6.58 4.312.15-.683.29-1.382.43-2.08-10.76-1.819-24.64.194-31.55-10.11-.77-1.135-2.39.284-1.64 1.427 7.31 10.875 21.69 8.904 33.03 10.826 1.28.217 1.49-1.643.44-2.088-4.69-2.008-8.39-6.146-12.29-9.287-3.76-3.032-8.41-6.285-13.55-5.558-3.2.455-5.86 2.513-7.94 4.867-.91 1.032.5 2.656 1.44 1.609z"/><path d="M1298.33 82.042c5.45 5.819 9.75 13.614 8.11 21.822l1.68-.819c-3.66-2.17-6.2-5.97-7.86-9.803-1.65-3.832-2.69-8.445-1.31-12.534.43-1.32-1.6-2.01-2.03-.69-1.53 4.542-.52 9.57 1.27 13.872 1.79 4.264 4.67 8.55 8.74 10.939.75.435 1.52-.013 1.68-.819 1.75-8.739-2.84-17.212-8.63-23.402-.97-.999-2.61.428-1.65 1.434z"/><path d="M1299.07 80.04c4.76-12.1 19.25-17.116 30.74-11.587-.12-.608-.25-1.216-.35-1.816-2.15 2.061-4.08 4.34-6.24 6.385-2.04 1.947-4.39 3.992-7.29 4.318-1.39.16-.99 2.254.39 2.117 6.19-.688 10.45-7.249 14.58-11.211.63-.611.39-1.466-.34-1.817-12.6-6.044-28.33-.17-33.5 12.928-.53 1.289 1.5 1.979 2.01.683zm3.87-31.56c-1.49-1.147-3.35-1.46-5.15-1.826-.25-.047-.6.104-.79.272-.19.168-.35.459-.36.728-.01.292.06.585.27.786.21.224.44.303.73.35.06.009.13.033.19.04.11.025.23.04.34.065.22.047.45.087.67.15.39.095.79.19 1.17.308.18.047.35.118.52.188.07.039.17.07.24.11.05.015.1.03.13.054.17.086-.26-.125-.08-.04.34.18.64.374.94.592.44.34 1.22.17 1.51-.313.29-.506.15-1.106-.33-1.463zm-9.87 18.48c-1.02-.208-2-.591-2.94-1.028-.06-.031-.1-.047-.16-.078.13.07.08.039-.02-.008-.12-.055-.23-.117-.35-.171-.23-.117-.47-.25-.68-.374-.48-.265-.96-.545-1.45-.825-.48-.28-1.18-.223-1.5.313-.29.467-.23 1.182.3 1.494 1.93 1.105 3.9 2.263 6.1 2.717.3.063.54.08.82-.056.24-.114.48-.366.55-.612.14-.506-.09-1.254-.67-1.373zm-15.94 20.144l-.65-.028c-.1-.008-.2-.016-.31-.04-.06-.008-.11-.024-.17-.032-.04 0-.21-.048-.02-.008s.02-.007-.02-.008c-.06-.008-.11-.023-.17-.032-.11-.023-.23-.063-.33-.086-.2-.056-.4-.134-.59-.212-.1-.047-.19-.078-.29-.125-.15-.078 0 0 .07.024-.05-.032-.1-.047-.15-.078-.19-.102-.38-.218-.57-.335-.19-.116-.38-.256-.55-.38-.1-.085-.19-.155-.29-.24-.07-.063-.18-.202 0 .015-.04-.054-.1-.085-.14-.14-.21-.2-.44-.34-.73-.35-.26-.025-.6.08-.79.27-.38.375-.54 1.105-.11 1.523.83.759 1.74 1.388 2.78 1.833.9.383 1.88.574 2.85.58.56.012 1.14-.384 1.17-.991.01-.561-.39-1.148-.99-1.16zm8.7-34.734c-1.69-.703-3.44-1.414-5.32-1.434-.57-.012-1.14.384-1.18.991-.02.546.39 1.148.99 1.16.44-.005.88.052 1.32.124.03 0 .08.016.13.032-.29-.033-.11-.024-.05-.016.11.024.22.048.32.072.22.047.43.118.63.173.84.26 1.64.596 2.44.931.51.227 1.22-.137 1.36-.667.2-.59-.08-1.123-.64-1.365zm-10.98 16.557c-1.6-.326-3.13-1.013-4.63-1.653-.53-.22-1.23.138-1.37.667-.18.583.11 1.131.66 1.358 1.5.625 3.03 1.312 4.64 1.654.3.063.54.08.82-.056.23-.114.47-.366.55-.612.08-.268.08-.576-.05-.815-.12-.232-.34-.487-.62-.543zm3.35-30.863c-2.84-.58-5.61-1.484-8.46-2.064-.55-.112-1.2.069-1.37.667-.16.499.07 1.246.67 1.358 2.84.58 5.61 1.483 8.45 2.064.56.111 1.2-.069 1.37-.667.15-.492-.08-1.239-.66-1.358zm-11.25 16.501c-1.49-.287-3.02-.266-4.51-.553-.25-.048-.6.103-.79.271-.19.168-.35.46-.36.728-.01.292.06.585.27.786.21.225.44.303.73.351 1.49.287 3.02.267 4.51.554.25.047.6-.104.79-.272.19-.168.35-.459.36-.728.01-.292-.06-.584-.27-.786-.22-.217-.44-.303-.73-.35zm-8.47 22.44c-1.9-1.097-3.9-2.033-5.71-3.29-.46-.327-1.2-.178-1.5.312-.31.513-.21 1.152.3 1.494 1.83 1.25 3.81 2.194 5.71 3.29.48.28 1.19.224 1.5-.312.27-.475.21-1.19-.3-1.494zm-.45-32.757c-1.94-.39-3.78-1.118-5.73-1.523-.3-.064-.54-.08-.82.056-.23.114-.47.366-.55.611-.16.499.07 1.246.67 1.358 1.94.39 3.78 1.117 5.73 1.523.3.063.54.08.82-.056.23-.114.47-.366.54-.612.15-.49-.08-1.238-.66-1.357zm-6.34 18.195a108.13 108.13 0 00-5.58-2.206c-.53-.18-1.22.114-1.37.667-.17.56.1 1.154.66 1.358 1.89.666 3.74 1.424 5.58 2.206.53.219 1.22-.138 1.37-.668.18-.583-.11-1.13-.66-1.357zm-11.46-16.509c-1.64-.687-3.26-1.367-4.89-2.063-.53-.218-1.22.138-1.37.668-.18.583.11 1.13.66 1.357 1.63.696 3.27 1.368 4.9 2.063.53.22 1.22-.137 1.37-.667.18-.568-.1-1.116-.67-1.358zm5.87-10.494c-.45.005-.88-.052-1.32-.124-.04 0-.08-.016-.13-.032.29.033.11.024.05.016l-.33-.072c-.21-.047-.42-.118-.62-.173-.84-.26-1.64-.595-2.44-.931-.53-.22-1.22.137-1.37.667-.17.583.11 1.131.67 1.358 1.69.703 3.44 1.415 5.32 1.435.56.012 1.14-.384 1.17-.992 0-.553-.41-1.156-1-1.152zm-6.72 26.28c-.58-.118-1.15-.3-1.68-.572.07.039.16.07.25.125-.66-.328-1.27-.755-1.85-1.22-.19-.155-.54-.211-.79-.167-.26.052-.56.235-.7.457-.14.237-.23.513-.18.79.07.293.23.502.46.696 1.12.884 2.36 1.615 3.78 1.901.3.064.54.08.82-.056.23-.113.47-.365.54-.611.09-.269.09-.576-.05-.815-.1-.216-.32-.471-.6-.527zm25.39 29.614c-1.84-.782-3.6-1.778-5.58-2.206-.3-.064-.54-.08-.82.056-.23.113-.48.365-.55.611-.16.499.07 1.246.66 1.358 1.99.405 3.74 1.424 5.58 2.206.52.226 1.23-.138 1.37-.668.19-.59-.1-1.115-.66-1.357zm28.05-55.547c-1.29-.747-2.72-1.326-4.2-1.635-.3-.064-.54-.081-.82.056-.24.113-.48.365-.55.61-.08.27-.09.577.05.816.13.224.35.48.61.543 1.16.238 2.26.653 3.31 1.175-.08-.039-.17-.07-.26-.124.23.101.43.21.65.335.24.147.51.21.79.166.27-.052.56-.234.7-.456.3-.467.24-1.183-.28-1.486z"/><path d="M1299.89 80.438c3.34 1.068 6.72 2.075 9.94 3.442.53.22 1.2-.145 1.37-.667.2-.575-.13-1.139-.66-1.358-3.24-1.36-6.6-2.359-9.95-3.435-.55-.173-1.18.115-1.37.667-.18.545.11 1.185.67 1.35z"/></g></svg>