<svg width="1920" height="450" fill="none" xmlns="http://www.w3.org/2000/svg"><mask id="a" maskUnits="userSpaceOnUse" x="0" y="0" width="1920" height="450"><path fill="#E3F1E9" d="M0 0h1920v450H0z"/></mask><g mask="url(#a)" fill="#D1D1D1"><path d="M662.721 354.308c-6.222-2.141-13.935-5.955-14.004-13.584-.04-5.177 2.93-9.951 4.357-14.808 2.743-9.344-.801-19.578-6.771-26.878-6.127-7.501-15.108-12.797-24.686-14.39-4.705-.79-9.569-.653-14.182.574-4.632 1.229-9.061 3.522-13.157 5.983-9.112 5.497-17.208 12.859-23.739 21.253-6.414 8.249-11.602 17.83-13.534 28.192-.883 4.783-1.084 9.789-.229 14.601 1.037 5.784 3.882 11.116 7.612 15.602 7.636 9.173 19.039 15.303 30.587 17.942 11.518 2.612 23.359-.378 31.711-8.867 4.362-4.434 7.274-9.883 10.1-15.358 1.436-2.771 3.138-5.729 6.282-6.75 3.098-1.011 6.286-.022 9.154 1.211 2.467 1.078 4.812 2.422 7.279 3.481.438.192.857.057 1.126-.347 1.192-1.851 2.615-3.522 3.357-5.632.345-1.007-1.274-1.379-1.618-.372-.673 1.939-2.108 3.526-3.201 5.234.382-.116.745-.231 1.127-.347-4.601-1.967-9.15-5.309-14.356-5.293-6.474.028-9.142 5.178-11.736 10.269-2.771 5.417-6.095 10.626-10.733 14.655-4.428 3.844-9.912 6.368-15.724 7.126-11.905 1.564-24.648-3.546-34.096-10.556-4.829-3.587-9.103-8.018-12.003-13.31-2.711-4.951-3.859-10.383-3.744-16.016.203-10.344 4.374-20.297 9.941-28.867 5.837-8.972 13.502-16.866 22.198-23.083 7.785-5.558 16.787-10.412 26.596-10.151 9.772.262 19.294 4.826 26.107 11.751 6.611 6.734 11.232 16.868 9.079 26.437-1.097 4.894-3.825 9.313-4.608 14.3-.845 5.44 1.742 10.329 6.19 13.429 2.709 1.887 5.793 3.123 8.899 4.18 1.064.361 1.426-1.267.419-1.611z"/><path d="M656.988 354.885c-3.527-1.597-7.204-2.899-10.582-4.812-1.645-.925-3.201-2.022-4.541-3.37-1.495-1.531-2.493-3.416-3.501-5.292-3.147-5.942-4.82-12.561-8.354-18.303-6.603-10.7-18.981-17.345-31.337-18.501-6.899-.645-13.875.48-20.092 3.591-.962.482-.082 1.891.871 1.419 11.242-5.611 24.914-4.167 35.683 1.823 5.729 3.191 10.692 7.723 13.99 13.425 3.288 5.675 4.928 12.116 8.068 17.871 1.934 3.547 4.199 6.256 7.686 8.382 3.563 2.16 7.544 3.528 11.328 5.24.973.438 1.763-1.025.781-1.473zm-18.823-4.803c-19.113-2.962-39.496-3.271-57.068-12.24-5.1-2.6-9.743-5.939-13.724-10.041-.739-.766-1.875.445-1.137 1.211 14.389 14.784 35.638 18.11 55.195 20.541 5.462.681 10.932 1.296 16.371 2.138 1.039.173 1.411-1.446.363-1.609z"/><path d="M628.644 339.813c-11.88-14.78-31.169-22.444-49.708-23.902-1.065-.088-1.004 1.573.051 1.652 17.88 1.404 36.777 8.846 48.237 23.103.655.834 2.076-.019 1.42-.853zm-16.296-3.635c-7.702-1.07-14.902-4.421-21.368-8.631-.892-.583-1.672.889-.78 1.472 6.571 4.273 13.942 7.694 21.776 8.778 1.047.145 1.438-1.474.372-1.619zm19.648 20.669c-8.25 2.443-16.739 4.443-25.392 4.211-9.264-.259-17.801-3.389-25.976-7.564-5.701-2.91-11.505-6.39-14.903-11.986-.556-.922-1.975-.05-1.42.872 2.952 4.849 7.634 8.224 12.504 10.973 4.533 2.543 9.295 4.844 14.225 6.519 8.34 2.855 17.099 3.477 25.808 2.213 5.304-.78 10.497-2.101 15.627-3.627 1.024-.315.552-1.907-.473-1.611z"/><path d="M629.316 363.426c-5.974 6.675-13.823 11.426-22.671 13.034-10.065 1.815-20.277-.501-28.475-6.611-4.946-3.695-9.158-8.269-13.641-12.496-.775-.727-1.922.475-1.137 1.211 8.337 7.863 16.22 16.812 27.959 19.266 9.014 1.884 18.45.719 26.664-3.471 4.755-2.426 8.962-5.821 12.521-9.788.708-.812-.502-1.948-1.22-1.145z"/><path d="M603.122 368.396c-5.887.16-11.81-1.118-16.485-4.869-.829-.669-1.966.542-1.137 1.211 5.022 4.041 11.317 5.504 17.665 5.32 1.08-.025 1.027-1.696-.043-1.662zm14.909-13.942c-7.174-.1-14.235-1.407-21.193-3.055-1.042-.249-1.414 1.37-.372 1.618 7.091 1.682 14.303 3.003 21.607 3.099 1.081.012 1.03-1.64-.042-1.662zm-36.499-8.441c-3.68-1.687-7.313-3.348-10.041-6.437-.711-.795-1.847.416-1.137 1.211 2.826 3.199 6.611 4.948 10.416 6.697.953.44 1.744-1.023.762-1.471zm-2.166-19.036c-3.448-1.45-6.718-3.244-10.174-4.685-.981-.41-1.761 1.062-.781 1.473 3.447 1.45 6.717 3.244 10.174 4.684.99.401 1.771-1.052.781-1.472zm65.452 6.879c-1.9-7.834-3.249-16.117-8.294-22.675-5.309-6.898-13.2-11.9-21.619-13.971-4.896-1.207-9.979-1.477-14.994-1.064-1.068.091-1.016 1.743.052 1.653 11.332-.935 21.999 2.099 30.644 9.576 3.921 3.39 6.898 7.515 8.732 12.371 1.773 4.708 2.691 9.706 3.887 14.583.258 1.045 1.84.562 1.592-.473zm.481-22.147c-2.16-3.849-4.312-7.765-7.236-11.112-2.983-3.419-6.742-5.837-11.079-7.174-1.015-.315-1.387 1.304-.372 1.619 4.204 1.304 7.748 3.737 10.588 7.096 2.683 3.156 4.659 6.852 6.679 10.444.527.932 1.938.07 1.42-.873z"/></g><g mask="url(#a)" fill="#7DCAC9"><path d="M574.089 174.061c2.73-8.491 2.484-18.96-.547-27.332-2.092-5.763-6.876-13.27-14.129-11.662-6.352 1.417-8.996 9.047-8.895 14.825.122 6.489 1.988 13.36 5.353 18.937 1.657 2.748 3.895 5.446 6.87 6.857 3.123 1.487 6.417 1.188 9.497-.254 1.676-.782.158-3.211-1.502-2.446-11.044 5.145-16.439-13.046-17.211-20.648-.493-4.891.214-11.261 5.07-13.925 5.523-3.043 10.243 3.932 11.868 8.252 3.109 8.289 3.553 18.314.839 26.789-.561 1.734 2.227 2.374 2.787.607z"/><path d="M571.901 173.484c-3.5-5.766-5.117-12.434-6.922-18.87-.493-1.782-3.252-.949-2.743.816 1.876 6.66 3.615 13.568 7.234 19.541.94 1.573 3.404.086 2.431-1.487zm-19.436 7.598c-4.406-3.163-8.905-6.193-13.59-8.959-5.346-3.165-11.316-6.634-17.547-7.585-2.197-.335-4.642-.338-6.527 1.001-2.075 1.475-2.641 4.084-2.582 6.495.086 3.786 1.182 7.767 3.511 10.769 2.666 3.446 6.479 5.769 10.524 7.211 8.663 3.076 20.742 2.545 26.125-5.998.988-1.554-1.564-2.881-2.535-1.345-4.196 6.676-13.802 7.079-20.643 5.273-3.771-.997-7.456-2.822-10.167-5.651-2.444-2.545-3.585-5.877-3.904-9.348-.1-1.13-.138-2.327.201-3.423.205-.687.623-1.299 1.019-1.587 1.25-.931 3.131-.829 4.841-.511 5.553 1.005 10.797 4.012 15.612 6.806a175.364 175.364 0 0111.518 7.389c.447.326.894.619 1.341.945.398.279.695.496.845.605 1.49 1.053 3.466-1.018 1.958-2.087z"/><path d="M550.255 182.399c-6.169-1.05-12.021-3.308-17.971-5.094-1.765-.527-2.407 2.263-.641 2.789 5.95 1.786 11.801 4.045 17.971 5.095 1.807.315 2.465-2.491.641-2.79zm-9.189-30.295c-1.171-7.412-2.673-15.574-7.524-21.572-2.965-3.662-7.372-7.36-12.127-8.244-2.036-.373-4.165-.111-5.74 1.332-1.81 1.661-2.279 4.234-2.401 6.57-.295 6.098 3.57 11.61 7.98 15.437 4.828 4.185 11.133 7.498 17.608 7.956 1.833.119 1.728-2.743-.089-2.847-4.722-.319-9.41-2.648-13.219-5.344-4.123-2.929-7.975-7.016-9.154-12.079-.748-3.183-.408-8.893 4.097-8.276 3.935.522 7.628 3.676 10.194 6.525 4.917 5.494 6.401 13.576 7.512 20.617.283 1.804 3.147 1.729 2.863-.075z"/><path d="M539.346 149.924c-3.904-3.665-7.383-7.715-11.286-11.38-1.335-1.253-3.31.818-1.959 2.086 3.903 3.665 7.382 7.716 11.286 11.38 1.351 1.269 3.31-.818 1.959-2.086z"/></g><g mask="url(#a)" fill="#83C5C4"><path d="M1330.37 343.265c26.48 11.675 64.06 15.049 87.15-5.608.63-.56.53-1.545.01-2.152-5.6-6.426-14.36-9.857-22.18-12.72-9.34-3.434-18.53-5.684-28.54-5.776-9.23-.089-17.4 1.724-25.63 5.935-4.13 2.1-8.07 4.558-11.94 7.087a381.55 381.55 0 00-5.17 3.461c-1.2.819-2.83 1.504-3.57 2.786-.44.756-.12 1.612.55 2.055 2.93 2.025 6.24 3.235 9.32 4.932 1.71.93 3.24-1.685 1.52-2.626-3.09-1.697-6.4-2.908-9.31-4.899.18.696.37 1.392.55 2.055.5-.862 2.93-1.976 3.9-2.624 1.61-1.089 3.24-2.164 4.85-3.219 3.5-2.269 7.07-4.467 10.79-6.352 7.94-4.044 15.77-5.66 24.67-5.536 9.3.125 17.77 2.245 26.45 5.377 7.55 2.706 16.16 5.997 21.58 12.206 0-.729.01-1.424.01-2.153-11.13 9.941-26.2 13.621-40.81 13.817-14.55.199-29.36-2.803-42.7-8.684-1.75-.758-3.29 1.856-1.5 2.638z"/><path d="M1325.66 338.165c15.61-2.56 31.46-3.301 47.26-3.034 6.8.117 13.56-.095 20.37-.174 7.1-.072 14.44.077 21.19 2.625 1.82.686 2.59-2.257.77-2.943-6.5-2.436-13.6-2.755-20.46-2.734-7.29.017-14.56.308-21.86.183-16.08-.262-32.14.553-48.02 3.151-1.95.328-1.15 3.257.75 2.926z"/><path d="M1406.12 337.775c-16.29 3.454-32.85 7.282-49.62 5.641-1.94-.193-1.92 2.842.01 3.034 17.01 1.667 33.86-2.221 50.38-5.737 1.92-.406 1.14-3.324-.77-2.938zm-24.11-11.848c-9.56-1.065-18.94.185-28.38 1.627-1.93.286-1.13 3.216.78 2.918 9.22-1.402 18.33-2.56 27.63-1.531 1.93.247 1.9-2.8-.03-3.014zm-29.96 13.046c-4.08-.453-8.11-1.381-12.24-1.466-.83-.028-1.51.724-1.51 1.54-.01.836.71 1.499 1.54 1.506 4.13.086 8.16 1.014 12.25 1.466.82.083 1.51-.778 1.5-1.54-.02-.882-.73-1.403-1.54-1.506zm-48.36-23.301c29-1.525 63.86-15.525 75.2-44.393.33-.817-.41-1.579-1.09-1.859-8.02-3.256-17.6-2.29-25.95-1.282-9.22 1.119-17.81 3.026-26.26 7.028-8.49 4.012-15.24 9.16-20.9 16.68-2.91 3.869-5.44 8.011-7.87 12.214-1.08 1.87-2.15 3.773-3.21 5.656-.74 1.336-1.89 2.691-1.97 4.241-.03.595.5 1.378 1.14 1.471 3.65.535 7.25.121 10.91.244 1.95.064 1.94-2.971-.02-3.034-3.37-.127-6.77.32-10.12-.132.38.501.75.97 1.14 1.471.06-.975 1.86-3.269 2.45-4.299 1-1.777 2-3.554 3.04-5.307 2.2-3.771 4.51-7.48 7.15-10.974 5.41-7.187 12.1-11.981 20.2-15.765 8.09-3.764 16.37-5.483 25.18-6.507 7.87-.917 16.81-1.78 24.33 1.271-.37-.631-.73-1.228-1.09-1.859-5.46 13.881-17.32 23.93-30.28 30.683-12.9 6.724-27.46 10.674-41.97 11.43-1.97.099-1.95 3.133-.01 3.022z"/><path d="M1296.85 313.434c13.17-9.601 27.35-17.607 42.02-24.659 6.05-2.898 11.89-6.166 17.84-9.232 5.98-3.076 12.31-6.086 19.07-6.809 1.91-.211 1.92-3.233-.02-3.035-13.27 1.419-24.63 9.878-36.38 15.475-15.37 7.293-30.28 15.582-44.04 25.625-1.55 1.145-.05 3.78 1.51 2.635z"/><path d="M1368.68 276.676c-12.87 10.336-25.84 21.199-41.38 27.242-1.81.696-1.04 3.634.78 2.917 16.08-6.239 29.42-17.307 42.74-27.996 1.52-1.224-.64-3.366-2.14-2.163zm-26.52.131c-9.03 3.359-16.84 8.629-24.64 14.182-1.58 1.133-.07 3.768 1.51 2.635 7.56-5.383 15.15-10.612 23.92-13.899 1.82-.684 1.04-3.602-.79-2.918zm-20.85 25.141c-3.97 1.49-8.1 2.524-11.94 4.369-.71.348-.97 1.398-.58 2.074.47.746 1.31.927 2.08.582a28.37 28.37 0 012.57-1.117c.97-.366 1.95-.698 2.93-1.031 1.9-.635 3.81-1.216 5.7-1.917.75-.271 1.35-1.017 1.07-1.849-.18-.751-1.02-1.399-1.83-1.111z"/></g></svg>