<svg width="21" height="18" fill="none" xmlns="http://www.w3.org/2000/svg"><path d="M20.66 2.674a8.686 8.686 0 01-2.434.659 4.197 4.197 0 001.865-2.307 8.511 8.511 0 01-2.693 1.011A4.266 4.266 0 0014.303.716c-2.342 0-4.238 1.868-4.238 4.17-.001.32.035.64.11.952a12.082 12.082 0 01-8.738-4.36 4.119 4.119 0 00-.576 2.096 4.16 4.16 0 001.894 3.473 4.197 4.197 0 01-1.928-.52v.051c0 2.023 1.464 3.706 3.4 4.09a4.422 4.422 0 01-1.116.146 4.06 4.06 0 01-.797-.078c.539 1.657 2.106 2.862 3.962 2.897A8.59 8.59 0 010 15.359a11.996 11.996 0 006.488 1.885c7.806 0 12.07-6.357 12.07-11.871 0-.18-.004-.362-.012-.538a8.543 8.543 0 002.114-2.16z" fill="#274C5B"/></svg>